<svg xmlns="http://www.w3.org/2000/svg" viewBox="0 0 1200 720" role="img" aria-label="Purpose-driven calm operations">
  <defs>
    <linearGradient id="bg" x1="0" x2="0" y1="0" y2="1">
      <stop offset="0%" stop-color="#f6f1e8"/>
      <stop offset="100%" stop-color="#e4dad0"/>
    </linearGradient>
    <linearGradient id="flow" x1="0" x2="1" y1="0" y2="0">
      <stop offset="0%" stop-color="#2f5d62"/>
      <stop offset="100%" stop-color="#8b6f47"/>
    </linearGradient>
  </defs>
  <rect width="1200" height="720" fill="url(#bg)"/>
  <rect x="0" y="470" width="1200" height="250" fill="#efe7dd"/>
  <rect x="80" y="110" width="380" height="220" rx="26" fill="#faf7f2" stroke="#d8cdbf"/>
  <rect x="130" y="160" width="240" height="12" rx="6" fill="#b9b0a6"/>
  <rect x="130" y="190" width="180" height="10" rx="5" fill="#cbbfb2"/>
  <rect x="130" y="215" width="200" height="10" rx="5" fill="#cbbfb2"/>
  <rect x="120" y="520" width="360" height="100" rx="20" fill="#f8f4ee" stroke="#d8cdbf"/>
  <rect x="520" y="510" width="520" height="120" rx="24" fill="#f7f3ed" stroke="#d8cdbf"/>
  <circle cx="950" cy="210" r="120" fill="#e7ded4" stroke="#d3c6b7"/>
  <path d="M150 570 H430" stroke="url(#flow)" stroke-width="6" stroke-linecap="round"/>
  <path d="M560 560 H980" stroke="#4b6f8f" stroke-width="6" stroke-linecap="round"/>
  <path d="M200 360 C340 330 440 350 560 340" stroke="#8b6f47" stroke-width="4" fill="none" stroke-linecap="round"/>
  <circle cx="250" cy="350" r="6" fill="#2f5d62"/>
  <circle cx="360" cy="340" r="6" fill="#4b6f8f"/>
  <circle cx="470" cy="345" r="6" fill="#8b6f47"/>
</svg>
